<?xml version="1.0" standalone="no"?>
<!DOCTYPE svg PUBLIC "-//W3C//DTD SVG 20010904//EN"
 "http://www.w3.org/TR/2001/REC-SVG-20010904/DTD/svg10.dtd">
<svg version="1.0" xmlns="http://www.w3.org/2000/svg"
 width="180.000000pt" height="180.000000pt" viewBox="0 0 180.000000 180.000000"
 preserveAspectRatio="xMidYMid meet">
<metadata>
Created by potrace 1.14, written by Peter Selinger 2001-2017
</metadata>
<g transform="translate(0.000000,180.000000) scale(0.100000,-0.100000)"
fill="#000000" stroke="none">
<path d="M778 1794 c-2 -2 -22 -6 -44 -10 -62 -10 -214 -63 -248 -87 -17 -12
-32 -20 -33 -17 -1 3 -12 -3 -23 -12 -11 -10 -23 -18 -27 -18 -21 0 -177 -148
-231 -219 -44 -58 -111 -197 -138 -286 -38 -128 -42 -319 -9 -451 23 -91 100
-274 116 -274 5 0 9 -5 9 -11 0 -29 199 -239 227 -239 6 0 13 -4 15 -9 6 -17
146 -88 224 -114 103 -33 133 -38 269 -43 339 -11 642 170 818 489 15 26 24
47 21 47 -4 0 -2 6 4 12 10 13 46 123 58 177 3 14 7 83 9 152 3 97 -1 143 -16
208 -49 210 -164 393 -329 523 -40 31 -137 92 -150 94 -3 0 -25 10 -50 22 -40
18 -109 41 -181 58 -28 7 -285 14 -291 8z"/>
</g>
</svg>
